<?xml version="1.0" encoding="utf-8"?>
<!-- Generator: Adobe Illustrator 18.0.0, SVG Export Plug-In . SVG Version: 6.00 Build 0)  -->
<!DOCTYPE svg PUBLIC "-//W3C//DTD SVG 1.1//EN" "http://www.w3.org/Graphics/SVG/1.1/DTD/svg11.dtd">
<svg version="1.1" id="Layer_1" xmlns="http://www.w3.org/2000/svg" xmlns:xlink="http://www.w3.org/1999/xlink" x="0px" y="0px"
	 viewBox="0 0 100 100" enable-background="new 0 0 100 100" xml:space="preserve">
<path fill="#05082D" d="M48.3,62.7l-26-16.1v16.9c0,1.3,0.7,2.5,1.8,3.2l22.3,13.4c1.2,0.7,2.6,0.7,3.8,0l22.3-13.4
	c1.1-0.7,1.8-1.9,1.8-3.2V46.6L48.3,62.7z"/>
<path fill="#080C4E" d="M87.2,36.3c1.3,0.8,1.3,2.7,0,3.5l-12.8,7.9l-25,15.5c-0.7,0.4-1.5,0.4-2.1,0l-25-15.5L9.4,39.7
	c-1.3-0.8-1.3-2.7,0-3.5l37.8-23.4c0.7-0.4,1.5-0.4,2.1,0L87.2,36.3z"/>
<circle fill="#D7DEED" cx="76.8" cy="8.7" r="4.5"/>
<circle fill="#D7DEED" cx="84.6" cy="89.9" r="5.6"/>
<circle fill="#D7DEED" cx="12.2" cy="84.4" r="4.5"/>
<circle fill="#080C4E" cx="92.4" cy="19.8" r="2.2"/>
<path fill="#080C4E" d="M72.3,84.4c1.2,0,2.2,1,2.2,2.2c0,1.2-1,2.2-2.2,2.2c-1.2,0-2.2-1-2.2-2.2C70.1,85.4,71.1,84.4,72.3,84.4z"
	/>
<circle fill="#080C4E" cx="27.8" cy="8.7" r="2.2"/>
<circle fill="#080C4E" cx="14.4" cy="64.3" r="2.2"/>
<circle fill="#080C4E" cx="7.7" cy="22" r="2.2"/>
<ellipse fill="#D7DEED" cx="48.3" cy="38" rx="3.3" ry="2.6"/>
<path fill="#FF8C00" d="M90,70.3c-0.6,0-1.2-0.5-1.2-1.2v-30H48.3c-0.6,0-1.2-0.5-1.2-1.2c0-0.6,0.5-1.2,1.2-1.2H90
	c0.6,0,1.2,0.5,1.2,1.2v31.1C91.1,69.7,90.6,70.3,90,70.3z"/>
<path fill="#080C4E" d="M90,69.1c2.6,0,4.6,2.1,4.6,4.6c0,2.6-2.1,4.6-4.6,4.6c-2.6,0-4.6-2.1-4.6-4.6C85.3,71.2,87.4,69.1,90,69.1z
	"/>
</svg>
