<?xml version="1.0" encoding="utf-8"?>
<!-- Generator: Adobe Illustrator 18.0.0, SVG Export Plug-In . SVG Version: 6.00 Build 0)  -->
<!DOCTYPE svg PUBLIC "-//W3C//DTD SVG 1.1//EN" "http://www.w3.org/Graphics/SVG/1.1/DTD/svg11.dtd">
<svg version="1.1" id="Layer_1" xmlns="http://www.w3.org/2000/svg" xmlns:xlink="http://www.w3.org/1999/xlink" x="0px" y="0px"
	 viewBox="0 0 100 100" enable-background="new 0 0 100 100" xml:space="preserve">
<polygon fill="#080C4E" points="72.5,55.6 72.5,47.3 78.7,47.3 78.7,39 49.6,18.2 20.5,39 20.5,47.3 26.8,47.3 26.8,55.6 3.9,55.6 
	3.9,63.9 8.1,63.9 26.8,63.9 26.8,86.8 8.1,86.8 8.1,97.2 26.8,97.2 41.3,97.2 41.3,76.4 57.9,76.4 57.9,97.2 72.5,97.2 91.2,97.2 
	91.2,86.8 72.5,86.8 72.5,63.9 91.2,63.9 95.3,63.9 95.3,55.6 "/>
<rect x="53.8" y="55.6" fill="#D7DEED" width="8.3" height="8.3"/>
<rect x="37.2" y="55.6" fill="#D7DEED" width="8.3" height="8.3"/>
<rect x="41.3" y="76.4" fill="#D7DEED" width="16.6" height="20.8"/>
<rect x="72.5" y="63.9" fill="#D7DEED" width="18.7" height="22.9"/>
<rect x="8.1" y="63.9" fill="#D7DEED" width="18.7" height="22.9"/>
<rect x="49.6" y="3.7" fill="#FF8C00" width="14.5" height="8.3"/>
<circle fill="#D7DEED" cx="13.3" cy="25.5" r="3.1"/>
<circle fill="#D7DEED" cx="84.9" cy="24.5" r="4.2"/>
<circle fill="#080C4E" cx="91.2" cy="43.2" r="2.1"/>
<circle fill="#080C4E" cx="78.7" cy="12" r="2.1"/>
<circle fill="#080C4E" cx="30.9" cy="14.1" r="2.1"/>
<circle fill="#080C4E" cx="8.1" cy="41.1" r="2.1"/>
<path fill="#080C4E" d="M49.6,19.3c-0.6,0-1-0.5-1-1V4.7c0-0.6,0.5-1,1-1c0.6,0,1,0.5,1,1v13.5C50.7,18.8,50.2,19.3,49.6,19.3z"/>
<path fill="#080C4E" d="M78.7,77.5c-0.6,0-1-0.5-1-1v-2.1c0-0.6,0.5-1,1-1c0.6,0,1,0.5,1,1v2.1C79.7,77,79.3,77.5,78.7,77.5z"/>
<path fill="#080C4E" d="M84.9,77.5c-0.6,0-1-0.5-1-1v-2.1c0-0.6,0.5-1,1-1c0.6,0,1,0.5,1,1v2.1C86,77,85.5,77.5,84.9,77.5z"/>
<path fill="#080C4E" d="M20.5,77.5c-0.6,0-1-0.5-1-1v-2.1c0-0.6,0.5-1,1-1c0.6,0,1,0.5,1,1v2.1C21.6,77,21.1,77.5,20.5,77.5z"/>
<path fill="#080C4E" d="M14.3,77.5c-0.6,0-1-0.5-1-1v-2.1c0-0.6,0.5-1,1-1c0.6,0,1,0.5,1,1v2.1C15.3,77,14.9,77.5,14.3,77.5z"/>
</svg>
