<?xml version="1.0" encoding="utf-8"?>
<!-- Generator: Adobe Illustrator 18.0.0, SVG Export Plug-In . SVG Version: 6.00 Build 0)  -->
<!DOCTYPE svg PUBLIC "-//W3C//DTD SVG 1.1//EN" "http://www.w3.org/Graphics/SVG/1.1/DTD/svg11.dtd">
<svg version="1.1" id="Layer_1" xmlns="http://www.w3.org/2000/svg" xmlns:xlink="http://www.w3.org/1999/xlink" x="0px" y="0px"
	 viewBox="0 0 100 100" enable-background="new 0 0 100 100" xml:space="preserve">
<path fill="#080C4E" d="M68.6,18.9V4.4H21.4C19,4.4,17,6.4,17,8.7V87v3.9c0,2.4,1.9,4.3,4.3,4.3h57.4c2.4,0,4.3-1.9,4.3-4.3v-72
	H68.6z"/>
<circle fill="#D7DEED" cx="94.4" cy="36.4" r="3.1"/>
<circle fill="#D7DEED" cx="6.7" cy="64.3" r="4.1"/>
<polygon fill="#FF8C00" points="62.4,68.4 43.9,68.4 25.3,68.4 62.4,41.6 74.8,68.4 "/>
<path fill="#BEC3C7" d="M68.6,4.4c5.6,5.6,8.8,8.8,14.4,14.4H68.6V4.4z"/>
<circle fill="#080C4E" cx="91.3" cy="16.8" r="2.1"/>
<circle fill="#080C4E" cx="91.3" cy="62.2" r="2.1"/>
<circle fill="#D7DEED" cx="76.9" cy="87" r="2.1"/>
<path fill="#D7DEED" d="M70.6,77.4c-0.2-0.4-0.3-0.9-0.3-1.3c0-0.4,0.1-0.9,0.2-1.3c0.2-0.4,0.4-0.8,0.7-1.1
	c0.3-0.3,0.7-0.6,1.1-0.8c0.4-0.2,0.9-0.3,1.5-0.3c0.7,0,1.3,0.1,1.7,0.4c0.5,0.3,0.9,0.7,1.1,1.1L75.5,75c-0.1-0.2-0.2-0.3-0.3-0.5
	c-0.1-0.1-0.3-0.2-0.4-0.3c-0.1-0.1-0.3-0.1-0.5-0.2c-0.2,0-0.3,0-0.5,0c-0.3,0-0.6,0.1-0.8,0.2c-0.2,0.1-0.4,0.3-0.6,0.5
	c-0.2,0.2-0.3,0.4-0.3,0.7c-0.1,0.3-0.1,0.5-0.1,0.8c0,0.3,0,0.6,0.1,0.8c0.1,0.3,0.2,0.5,0.4,0.7c0.2,0.2,0.4,0.4,0.6,0.5
	c0.2,0.1,0.5,0.2,0.8,0.2c0.1,0,0.3,0,0.5-0.1c0.2,0,0.3-0.1,0.5-0.2c0.1-0.1,0.3-0.2,0.4-0.3c0.1-0.1,0.2-0.3,0.3-0.5l1.3,0.8
	c-0.1,0.3-0.3,0.5-0.5,0.7c-0.2,0.2-0.5,0.4-0.7,0.5c-0.3,0.1-0.6,0.2-0.9,0.3c-0.3,0.1-0.6,0.1-0.9,0.1c-0.5,0-1-0.1-1.4-0.3
	c-0.4-0.2-0.8-0.5-1.1-0.8C71,78.3,70.8,77.9,70.6,77.4z"/>
<path fill="#D7DEED" d="M60.1,34.7l-0.8-2.5l-0.9,2.5H60.1z M60,30.3l2.6,7.2h-1.7l-0.6-1.6h-2.2l-0.5,1.6h-1.7l2.6-7.2H60z"/>
<path fill="#D7DEED" d="M27.2,74.7c0-0.2-0.1-0.4-0.2-0.5c-0.1-0.1-0.3-0.2-0.4-0.2h-1.7v1.5h1.6c0.2,0,0.3-0.1,0.5-0.2
	C27.1,75.1,27.2,74.9,27.2,74.7z M27.4,77.5c0-0.2-0.1-0.4-0.2-0.6c-0.1-0.2-0.3-0.2-0.5-0.2h-1.9v1.6h1.8c0.2,0,0.4-0.1,0.5-0.2
	C27.4,77.9,27.4,77.7,27.4,77.5z M28.8,76.7c0.2,0.3,0.4,0.7,0.4,1.2c0,0.3-0.1,0.6-0.2,0.8c-0.1,0.2-0.3,0.4-0.5,0.6
	c-0.2,0.2-0.5,0.3-0.8,0.3c-0.3,0.1-0.6,0.1-0.9,0.1h-3.5v-7.2h4c0.2,0,0.5,0.1,0.7,0.2c0.2,0.1,0.4,0.2,0.5,0.4
	c0.1,0.2,0.2,0.4,0.3,0.6c0.1,0.2,0.1,0.4,0.1,0.7c0,0.3-0.1,0.7-0.3,1c-0.2,0.3-0.4,0.5-0.8,0.7C28.2,76.1,28.5,76.3,28.8,76.7z"/>
<circle fill="#080C4E" cx="8.8" cy="45.7" r="2.1"/>
<path fill="#080C4E" d="M43.9,69.4c-0.6,0-1-0.5-1-1v-4.1c0-0.6,0.5-1,1-1c0.6,0,1,0.5,1,1v4.1C44.9,69,44.4,69.4,43.9,69.4z"/>
<path fill="#080C4E" d="M62.4,69.4c-0.6,0-1-0.5-1-1v-8.3c0-0.6,0.5-1,1-1c0.6,0,1,0.5,1,1v8.3C63.5,69,63,69.4,62.4,69.4z"/>
<path fill="#D7DEED" d="M37.7,13.7H25.3c-0.6,0-1-0.5-1-1c0-0.6,0.5-1,1-1h12.4c0.6,0,1,0.5,1,1C38.7,13.2,38.2,13.7,37.7,13.7z"/>
<path fill="#D7DEED" d="M37.7,19.9H25.3c-0.6,0-1-0.5-1-1c0-0.6,0.5-1,1-1h12.4c0.6,0,1,0.5,1,1C38.7,19.4,38.2,19.9,37.7,19.9z"/>
<path fill="#D7DEED" d="M48,26.1H25.3c-0.6,0-1-0.5-1-1c0-0.6,0.5-1,1-1H48c0.6,0,1,0.5,1,1C49,25.6,48.5,26.1,48,26.1z"/>
<path fill="#D7DEED" d="M48,32.3H25.3c-0.6,0-1-0.5-1-1c0-0.6,0.5-1,1-1H48c0.6,0,1,0.5,1,1C49,31.8,48.5,32.3,48,32.3z"/>
<path fill="#D7DEED" d="M70.7,88H18c-0.6,0-1-0.5-1-1c0-0.6,0.5-1,1-1h52.7c0.6,0,1,0.5,1,1C71.7,87.5,71.3,88,70.7,88z"/>
</svg>
